<?xml version="1.0" encoding="utf-8"?>

<svg version="1.1" id="Layer_1" xmlns="http://www.w3.org/2000/svg" xmlns:xlink="http://www.w3.org/1999/xlink" x="0px" y="0px"
	 viewBox="0 0 612 792" xml:space="preserve">

<g>
	<defs>
		<rect id="SVGID_1_" x="119.28" y="200.24" width="369.98" height="390.51"/>
	</defs>
	<clipPath id="SVGID_2_">
		<use xlink:href="#SVGID_1_"  style="overflow:visible;"/>
	</clipPath>
</g>
<path  d="M487.39,358.19c0,0,0-1.72,0-16.99c0-15.27-15.76-14.04-15.76-14.04h-18.96v-31.03
	c0-74.62-64.52-71.17-64.52-71.17H306h-82.14c0,0-64.52-3.45-64.52,71.17v31.03h-18.96c0,0-15.76-1.23-15.76,14.04
	c0,15.27,0,16.99,0,16.99s-0.99,14.53,14.53,14.53s18.96,0,18.96,0s-18.47,27.34-18.47,69.7s0,45.31,0,45.31
	s-1.48,23.64,23.64,23.64v33.74c0,0-2.96,21.92,22.16,21.92s32.51,0,32.51,0s20.69,1.97,20.69-22.41c0-24.38,0-33.25,0-33.25H306
	h67.36c0,0,0,8.87,0,33.25c0,24.38,20.69,22.41,20.69,22.41s7.39,0,32.51,0s22.16-21.92,22.16-21.92v-33.74
	c25.12,0,23.64-23.64,23.64-23.64s0-2.96,0-45.31s-18.47-69.7-18.47-69.7s3.45,0,18.96,0S487.39,358.19,487.39,358.19z
	 M198.85,464.74c-17.18,0-31.11-13.93-31.11-31.11c0-17.18,13.93-31.11,31.11-31.11s31.11,13.93,31.11,31.11
	C229.95,450.81,216.03,464.74,198.85,464.74z M365.85,465.45H306h-59.85v-9.11H306h59.85V465.45z M366.17,410.77H306h-60.17v-9.43
	H306h60.17V410.77z M306,363.32h-99.77c0,0-16.34,2.51-16.34-15.08s0-51.22,0-51.22s1.57-45.25,45.25-45.25s70.85,0,70.85,0
	s27.17,0,70.85,0s45.25,45.25,45.25,45.25s0,33.63,0,51.22s-16.34,15.08-16.34,15.08H306z M413.15,464.74
	c-17.18,0-31.11-13.93-31.11-31.11c0-17.18,13.93-31.11,31.11-31.11s31.11,13.93,31.11,31.11
	C444.26,450.81,430.33,464.74,413.15,464.74z"/>
</svg>