<?xml version="1.0" standalone="no"?>
<!DOCTYPE svg PUBLIC "-//W3C//DTD SVG 20010904//EN"
 "http://www.w3.org/TR/2001/REC-SVG-20010904/DTD/svg10.dtd">
<svg version="1.0" xmlns="http://www.w3.org/2000/svg"
 width="792.000000pt" height="792.000000pt" viewBox="0 0 792.000000 792.000000"
 preserveAspectRatio="xMidYMid meet">
<metadata>
Created by potrace 1.11, written by Peter Selinger 2001-2013
</metadata>
<g transform="translate(0.000000,792.000000) scale(0.100000,-0.100000)"
fill="#000000" stroke="none">
<path d="M2967 5649 c-119 -29 -200 -74 -282 -154 -76 -76 -121 -151 -153
-256 -30 -98 -35 -154 -36 -381 l-1 -208 -105 -1 c-129 -1 -138 -2 -177 -19
-53 -24 -68 -71 -66 -221 1 -115 4 -132 23 -159 32 -44 73 -58 181 -58 52 0
101 0 110 -1 14 -1 11 -12 -17 -65 -31 -58 -89 -208 -99 -253 -2 -10 -8 -38
-14 -63 -7 -25 -13 -58 -15 -75 -2 -16 -7 -57 -12 -90 -10 -86 -11 -612 -1
-664 19 -94 86 -157 178 -168 35 -4 49 -10 50 -22 0 -9 1 -104 3 -211 1 -168
4 -200 20 -229 47 -88 94 -101 363 -101 265 0 296 9 346 105 19 36 21 59 23
235 1 107 3 200 3 206 1 7 210 10 673 10 l672 -1 1 -195 c1 -251 14 -293 106
-341 32 -16 62 -18 263 -18 250 0 283 6 338 65 39 43 45 82 45 285 0 102 3
190 6 196 4 6 27 13 52 16 75 11 124 49 158 125 19 44 21 63 20 337 0 269 -5
392 -18 455 -3 14 -8 40 -11 58 -15 88 -76 261 -124 350 -24 44 -26 52 -12 53
10 0 64 1 122 2 172 4 194 31 194 233 -1 120 -3 134 -23 163 -34 47 -73 59
-202 60 -62 1 -115 4 -118 6 -2 3 -5 98 -7 213 -2 222 -5 252 -28 350 -40 165
-152 303 -311 384 -130 67 -63 63 -1100 65 -901 2 -943 1 -1018 -18z m1810
-258 c178 -36 315 -198 339 -404 4 -29 8 -55 11 -59 2 -5 -1 -8 -7 -8 -6 0 -9
-4 -5 -10 3 -5 5 -29 5 -52 -1 -47 0 -54 0 -149 1 -36 0 -70 -1 -75 -1 -5 -1
-11 0 -14 6 -15 5 -100 -1 -100 -4 0 -3 -13 2 -29 4 -16 7 -31 5 -33 -2 -2 -6
-23 -9 -48 -3 -24 -14 -56 -24 -70 -42 -56 10 -53 -1127 -54 -679 -1 -1059 3
-1075 9 -14 5 -35 17 -46 25 -22 16 -47 77 -44 107 1 10 1 23 0 28 -2 10 -1
128 1 143 1 4 1 12 0 17 -5 27 -2 265 3 274 4 5 2 12 -4 16 -6 4 -8 9 -6 13 2
4 5 27 7 52 1 25 5 50 8 55 3 6 7 21 9 34 2 14 19 58 37 99 64 138 184 224
330 238 33 3 61 7 62 8 1 0 334 0 740 -1 470 -1 757 -5 790 -12z m-217 -1499
c3 -7 4 -28 2 -47 l-4 -33 -598 1 -598 0 -4 35 c-2 19 1 40 8 46 9 9 156 12
600 12 495 0 590 -2 594 -14z m-1601 -6 c99 -19 201 -116 229 -217 12 -44 8
-142 -6 -188 -30 -90 -120 -174 -214 -198 -32 -8 -127 -7 -163 1 -64 15 -185
111 -185 148 0 6 -6 19 -14 27 -25 28 -34 124 -20 196 24 115 137 218 254 233
19 2 36 5 38 6 3 4 33 0 81 -8z m2174 -10 c89 -29 173 -119 198 -210 51 -188
-89 -382 -283 -390 -35 -2 -67 -1 -73 3 -5 3 -19 7 -30 8 -66 10 -160 91 -197
171 -29 63 -31 187 -2 250 10 23 22 42 26 42 5 0 8 5 8 12 0 13 79 88 93 88 6
0 18 6 26 14 20 17 113 34 161 28 19 -2 52 -9 73 -16z m-575 -560 c1 -22 -2
-42 -7 -45 -5 -4 -274 -6 -598 -6 l-588 0 -2 45 -3 46 597 -1 598 0 3 -39z"/>
</g>
</svg>
